<?xml version="1.0" encoding="iso-8859-1"?>
<!-- Uploaded to: SVG Repo, www.svgrepo.com, Generator: SVG Repo Mixer Tools -->
<svg fill="#000000" height="800px" width="800px" version="1.1" id="Layer_1" xmlns="http://www.w3.org/2000/svg" xmlns:xlink="http://www.w3.org/1999/xlink" 
	 viewBox="0 0 512 512" xml:space="preserve">
<g>
	<g>
		<path d="M52,0v284h13.896c9.424-24,48.876-132,50.236-284H52z"/>
	</g>
</g>
<g>
	<g>
		<path d="M90.148,300H82.54c18.1,52,20.54,180,20.864,212h31.188C133.808,480,128.288,348,90.148,300z"/>
	</g>
</g>
<g>
	<g>
		<path d="M132.1,0c-1.24,144-35.472,252-48.752,284h7.124c14.644-20,98.728-128,101.54-284H132.1z"/>
	</g>
</g>
<g>
	<g>
		<path d="M65.648,300H52v212h35.392C87.004,480,84.3,348,65.648,300z"/>
	</g>
</g>
<g>
	<g>
		<path d="M387.88,0h-59.908c2.816,156,86.896,264,101.54,284h7.12C423.356,252,389.124,144,387.88,0z"/>
	</g>
</g>
<g>
	<g>
		<path d="M429.832,300c-38.14,48-43.656,180-44.444,212h31.188c0.324-32,2.764-160,20.864-212H429.832z"/>
	</g>
</g>
<g>
	<g>
		<path d="M403.852,0c1.356,152,40.812,260,50.236,284H460V0H403.852z"/>
	</g>
</g>
<g>
	<g>
		<path d="M454.336,300c-18.652,48-21.352,180-21.744,212H460V300H454.336z"/>
	</g>
</g>
<g>
	<g>
		<path d="M380.204,344H272V58.04c24,113,104.472,196.884,130.304,218.648C372.592,238.756,314.336,136,312.024,0h-36.36H268
			h-16.016h-7.648H207.96c-2.312,136-64.568,238.756-94.28,276.688C139.516,254.916,216,171,240,57.956V344H139.78
			c-7.796-16-17.452-32.296-29.464-43.228C145.216,358.264,149.984,480,150.624,512H171.9c-0.708-20-4.16-84-20.556-136h92.992
			h31.332h92.972c-16.4,52-19.848,116-20.556,136h21.276c0.64-32,5.408-153.736,40.308-211.228C397.656,311.704,388,328,380.204,344
			z"/>
	</g>
</g>
</svg>